<svg id="Groupe_327" data-name="Groupe 327" xmlns="http://www.w3.org/2000/svg" width="27.251" height="27.251" viewBox="0 0 27.251 27.251">
  <path id="Tracé_319" data-name="Tracé 319" d="M4407.779,6822.49a13.625,13.625,0,1,0,13.627,13.625,13.642,13.642,0,0,0-13.627-13.625Zm6.082,10.507c0,.135.007.271.007.408a8.919,8.919,0,0,1-13.731,7.511,6.214,6.214,0,0,0,.748.046,6.294,6.294,0,0,0,3.9-1.343,3.141,3.141,0,0,1-2.929-2.179,3.274,3.274,0,0,0,.59.057,3.061,3.061,0,0,0,.826-.111,3.135,3.135,0,0,1-2.517-3.073.223.223,0,0,1,0-.04,3.1,3.1,0,0,0,1.42.391,3.137,3.137,0,0,1-.972-4.186,8.9,8.9,0,0,0,6.463,3.277,3.138,3.138,0,0,1,5.343-2.862,6.239,6.239,0,0,0,1.995-.76,3.146,3.146,0,0,1-1.38,1.736,6.215,6.215,0,0,0,1.8-.492,6.4,6.4,0,0,1-1.562,1.62Zm0,0" transform="translate(-4394.155 -6822.49)" fill="#fff"/>
</svg>
