<svg xmlns="http://www.w3.org/2000/svg" xmlns:xlink="http://www.w3.org/1999/xlink" width="18.045" height="14.868" viewBox="0 0 18.045 14.868">
  <defs>
    <clipPath id="clip-path">
      <rect id="Rectangle_162" data-name="Rectangle 162" width="18.045" height="14.868" fill="#fff"/>
    </clipPath>
  </defs>
  <g id="Groupe_331" data-name="Groupe 331" transform="translate(0 0)">
    <g id="Groupe_330" data-name="Groupe 330" transform="translate(0 0)" clip-path="url(#clip-path)">
      <path id="Tracé_6888" data-name="Tracé 6888" d="M9.115,2.717c3.042.03,4.949-.158,5.2,3.213h3.713C18.033.707,13.476,0,9.018,0S.006.707.006,5.93H3.688C3.971,2.494,6.1,2.686,9.115,2.717" transform="translate(0.012 0.001)" fill="#fff"/>
      <path id="Tracé_6889" data-name="Tracé 6889" d="M1.858,3.339c.9,0,1.657.055,1.824-.834l.034-.417H0C0,3.409.831,3.339,1.858,3.339" transform="translate(0 4.27)" fill="#fff"/>
      <path id="Tracé_6890" data-name="Tracé 6890" d="M11.669,2.312V1.788c0-.238-.271-.25-.606-.25h-.545c-.335,0-.606.012-.606.25v.8H6.05v-.8c0-.238-.271-.25-.606-.25H4.9c-.335,0-.606.012-.606.25v.984A39,39,0,0,0,.428,8.049l0,3.146a.527.527,0,0,0,.527.527H15a.527.527,0,0,0,.527-.527V8.034a39.618,39.618,0,0,0-3.862-5.263ZM5.858,8.473a.512.512,0,1,1,.512-.512.511.511,0,0,1-.512.512m0-1.757A.512.512,0,1,1,6.37,6.2a.511.511,0,0,1-.512.512m0-1.754A.512.512,0,1,1,6.37,4.45a.511.511,0,0,1-.512.512M7.966,8.473a.512.512,0,1,1,.512-.512.511.511,0,0,1-.512.512m0-1.757A.512.512,0,1,1,8.477,6.2a.511.511,0,0,1-.512.512m0-1.754a.512.512,0,1,1,.512-.512.511.511,0,0,1-.512.512m2.108,3.512a.512.512,0,1,1,.512-.512.511.511,0,0,1-.512.512m0-1.757a.512.512,0,1,1,.512-.512.511.511,0,0,1-.512.512m0-1.754a.512.512,0,1,1,.512-.512.511.511,0,0,1-.512.512" transform="translate(0.875 3.147)" fill="#fff"/>
    </g>
  </g>
</svg>
