<svg id="Groupe_328" data-name="Groupe 328" xmlns="http://www.w3.org/2000/svg" width="27.87" height="27.872" viewBox="0 0 27.87 27.872">
  <path id="Tracé_320" data-name="Tracé 320" d="M4453.47,6841.638v2.991a5.4,5.4,0,0,1,0,.725c-.086.231-.473.479-.625.025a6.171,6.171,0,0,1,0-.73l0-3.011h-1.052l0,2.963c0,.455-.011.794,0,.947.025.272.016.59.271.771a1.288,1.288,0,0,0,1.618-.534l0,.617h.85v-4.765Z" transform="translate(-4441.225 -6825.197)" fill="#fff"/>
  <path id="Tracé_321" data-name="Tracé 321" d="M4455.482,6834.684a.492.492,0,0,0,.469-.509v-2.637a.471.471,0,1,0-.938,0v2.637A.493.493,0,0,0,4455.482,6834.684Z" transform="translate(-4441.733 -6823.525)" fill="#fff"/>
  <path id="Tracé_322" data-name="Tracé 322" d="M4451.4,6839.663l-3.385,0v.815l1.056,0v5.615h1.059v-5.6h1.27Z" transform="translate(-4440.63 -6824.885)" fill="#fff"/>
  <path id="Tracé_323" data-name="Tracé 323" d="M4456.848,6841.514l0-1.852-1.057,0,0,6.387.87-.013.079-.4c1.111,1,1.809.315,1.808-.89l0-2.49C4458.542,6841.313,4457.823,6840.746,4456.848,6841.514Zm.912,3.418a.474.474,0,0,1-.926,0v-2.794a.473.473,0,0,1,.926,0Z" transform="translate(-4441.856 -6824.885)" fill="#fff"/>
  <path id="Tracé_324" data-name="Tracé 324" d="M4461.7,6844.685c0,.03,0,.066,0,.1v.438a.431.431,0,0,1-.433.425h-.156a.431.431,0,0,1-.434-.425v-1.149h1.817v-.675a10.265,10.265,0,0,0-.055-1.269c-.13-.892-1.4-1.034-2.039-.577a1.184,1.184,0,0,0-.444.59,3.284,3.284,0,0,0-.135,1.052v1.485c0,2.467,3.037,2.118,2.676,0Zm-1.006-2.007a.471.471,0,0,1,.472-.466h.064a.471.471,0,0,1,.473.466l-.012.573h-1Z" transform="translate(-4442.49 -6825.144)" fill="#fff"/>
  <path id="Tracé_325" data-name="Tracé 325" d="M4453.186,6822.122a13.936,13.936,0,1,0,13.935,13.936A13.935,13.935,0,0,0,4453.186,6822.122Zm1.874,6.875h.969v3.853a.387.387,0,0,0,.773,0V6829h.93v4.951h-1.181l.02-.41a.953.953,0,0,1-.3.374.676.676,0,0,1-.405.125.749.749,0,0,1-.433-.119.726.726,0,0,1-.254-.317,1.422,1.422,0,0,1-.1-.413c-.013-.143-.021-.427-.021-.853Zm-2.9.051a1.266,1.266,0,0,1,.8-.243,1.482,1.482,0,0,1,.7.156,1.155,1.155,0,0,1,.454.407,1.585,1.585,0,0,1,.218.514,4.069,4.069,0,0,1,.06.812v1.252a6.619,6.619,0,0,1-.056,1.011,1.6,1.6,0,0,1-.232.6,1.076,1.076,0,0,1-.454.412,1.445,1.445,0,0,1-.64.133,1.786,1.786,0,0,1-.682-.113.93.93,0,0,1-.436-.344,1.5,1.5,0,0,1-.221-.554,5.232,5.232,0,0,1-.066-.976V6830.8a4.1,4.1,0,0,1,.12-1.114A1.244,1.244,0,0,1,4452.16,6829.047Zm-3.091-2,.709,2.422.7-2.415h1.217l-1.315,3.253v3.8h-1.113l0-3.8-1.4-3.261Zm11.728,15.707a2.415,2.415,0,0,1-2.49,2.318h-10.242a2.415,2.415,0,0,1-2.49-2.318v-5.316a2.416,2.416,0,0,1,2.49-2.319h10.242a2.416,2.416,0,0,1,2.49,2.319Z" transform="translate(-4439.25 -6822.122)" fill="#fff"/>
</svg>
