<svg id="Groupe_326" data-name="Groupe 326" xmlns="http://www.w3.org/2000/svg" width="27.871" height="27.872" viewBox="0 0 27.871 27.872">
  <path id="Tracé_315" data-name="Tracé 315" d="M4357.5,6840.931a2.787,2.787,0,1,0-2.787-2.79,2.792,2.792,0,0,0,2.787,2.79Zm0,0" transform="translate(-4343.564 -6824.207)" fill="#fff"/>
  <path id="Tracé_316" data-name="Tracé 316" d="M4364.748,6834.11v-2.686h-.35l-2.338.008.012,2.686Zm0,0" transform="translate(-4344.721 -6823.587)" fill="#fff"/>
  <path id="Tracé_317" data-name="Tracé 317" d="M4355.413,6822.122a13.936,13.936,0,1,0,13.937,13.935,13.952,13.952,0,0,0-13.937-13.935Zm7.926,12.309v6.491a3.064,3.064,0,0,1-3.064,3.061h-9.724a3.064,3.064,0,0,1-3.062-3.061V6831.2a3.065,3.065,0,0,1,3.062-3.064h9.724a3.066,3.066,0,0,1,3.064,3.064Zm0,0" transform="translate(-4341.479 -6822.122)" fill="#fff"/>
  <path id="Tracé_318" data-name="Tracé 318" d="M4361.162,6838.359a4.334,4.334,0,1,1-8.352-1.626h-2.364v6.491a1.515,1.515,0,0,0,1.518,1.516h9.724a1.518,1.518,0,0,0,1.519-1.516v-6.491h-2.367a4.254,4.254,0,0,1,.323,1.626Zm0,0" transform="translate(-4342.892 -6824.423)" fill="#fff"/>
</svg>
