<svg xmlns="http://www.w3.org/2000/svg" width="15.33" height="15.332" viewBox="0 0 15.33 15.332">
  <path id="paper-plane" d="M14.77.564A1.9,1.9,0,0,0,12.982.053L2.76,2.205A3.191,3.191,0,0,0,.937,7.624l1.1,1.1a.639.639,0,0,1,.187.452V11.2a1.894,1.894,0,0,0,.192.821l-.005,0,.017.017a1.917,1.917,0,0,0,.87.866l.017.017,0-.005a1.894,1.894,0,0,0,.821.192H6.161a.639.639,0,0,1,.452.187l1.1,1.1a3.171,3.171,0,0,0,2.249.941,3.226,3.226,0,0,0,1.025-.169,3.151,3.151,0,0,0,2.136-2.546L15.276,2.374A1.9,1.9,0,0,0,14.77.564ZM2.94,7.818l-1.1-1.1A1.878,1.878,0,0,1,1.38,4.758a1.9,1.9,0,0,1,1.6-1.294L13.1,1.333l-9.6,9.6V9.173A1.9,1.9,0,0,0,2.94,7.818ZM11.865,12.4a1.917,1.917,0,0,1-3.251,1.094l-1.1-1.1a1.9,1.9,0,0,0-1.354-.561H4.4l9.6-9.6Z" transform="translate(-0.003 0)" fill="#fff"/>
</svg>
