<svg xmlns="http://www.w3.org/2000/svg" width="13.575" height="18.566" viewBox="0 0 13.575 18.566">
  <g id="placeholder" transform="translate(-68.817)">
    <g id="Groupe_332" data-name="Groupe 332" transform="translate(68.817)">
      <path id="Tracé_6891" data-name="Tracé 6891" d="M75.6,0a6.857,6.857,0,0,0-6.788,6.909c0,2.131,1.078,4.718,3.2,7.688a33.877,33.877,0,0,0,3.153,3.789.607.607,0,0,0,.852.009,30.578,30.578,0,0,0,3.16-3.694c2.128-2.926,3.206-5.548,3.206-7.793A6.857,6.857,0,0,0,75.6,0Zm0,9.892a3.318,3.318,0,1,1,3.318-3.318A3.322,3.322,0,0,1,75.6,9.892Z" transform="translate(-68.817)" fill="#fff"/>
    </g>
  </g>
</svg>
